<svg xmlns="http://www.w3.org/2000/svg" width="49" height="73" viewBox="0 0 49 73" fill="none">
  <path d="M 4.875 73 C 3.563 73 2.406 72.533 1.406 71.598 C 0.469 70.663 0 69.51 0 68.14 L 0 4.86 C 0 3.49 0.469 2.337 1.406 1.402 C 2.406 0.467 3.563 0 4.875 0 C 6.25 0 7.407 0.467 8.344 1.402 C 9.282 2.337 9.75 3.49 9.75 4.86 L 9.75 32.901 L 40.783 1.963 C 41.533 1.215 42.221 0.717 42.846 0.467 C 43.471 0.156 44.127 0 44.815 0 C 46.377 0 47.502 0.467 48.19 1.402 C 48.877 2.337 49.127 3.458 48.94 4.767 C 48.752 6.013 48.158 7.166 47.158 8.225 L 23.251 32.154 L 47.627 65.242 C 48.377 66.301 48.69 67.454 48.565 68.7 C 48.44 69.884 48.002 70.912 47.252 71.785 C 46.502 72.595 45.502 73 44.252 73 C 42.502 73 41.158 72.315 40.221 70.944 L 16.501 38.883 L 9.75 45.613 L 9.75 68.14 C 9.75 69.51 9.282 70.663 8.344 71.598 C 7.407 72.533 6.25 73 4.875 73 Z" fill="currentColor" fill-rule="nonzero"/>
</svg>
