<svg xmlns="http://www.w3.org/2000/svg" width="305.977" height="53.460" viewBox="0 0 305.977 53.460" fill="none">
  <path d="M 0 52.38 L 0 0.54 L 6.408 0.54 L 6.408 24.876 L 29.088 0.54 L 37.152 0.54 L 13.608 25.704 L 38.988 52.38 L 30.708 52.38 L 6.408 27.036 L 6.408 52.38 L 0 52.38 Z" fill="currentColor" fill-rule="nonzero"/>
  <path d="M 61.293 53.46 C 57.429 53.46 54.093 52.584 51.285 50.832 C 48.501 49.08 46.353 46.656 44.841 43.56 C 43.329 40.464 42.573 36.912 42.573 32.904 C 42.573 28.824 43.341 25.248 44.877 22.176 C 46.413 19.104 48.585 16.716 51.393 15.012 C 54.201 13.284 57.501 12.42 61.293 12.42 C 65.181 12.42 68.529 13.296 71.337 15.048 C 74.145 16.776 76.293 19.188 77.781 22.284 C 79.293 25.356 80.049 28.896 80.049 32.904 C 80.049 36.96 79.293 40.536 77.781 43.632 C 76.269 46.704 74.109 49.116 71.301 50.868 C 68.493 52.596 65.157 53.46 61.293 53.46 Z M 61.293 47.376 C 65.325 47.376 68.325 46.032 70.293 43.344 C 72.261 40.656 73.245 37.176 73.245 32.904 C 73.245 28.512 72.249 25.02 70.257 22.428 C 68.265 19.812 65.277 18.504 61.293 18.504 C 58.581 18.504 56.349 19.116 54.597 20.34 C 52.845 21.564 51.537 23.256 50.673 25.416 C 49.809 27.576 49.377 30.072 49.377 32.904 C 49.377 37.272 50.385 40.776 52.401 43.416 C 54.417 46.056 57.381 47.376 61.293 47.376 Z" fill="currentColor" fill-rule="nonzero"/>
  <path d="M 138.051 52.38 L 138.087 27.504 C 138.087 24.6 137.307 22.332 135.747 20.7 C 134.211 19.044 132.207 18.216 129.735 18.216 C 128.295 18.216 126.927 18.552 125.631 19.224 C 124.335 19.872 123.279 20.904 122.463 22.32 C 121.647 23.712 121.239 25.5 121.239 27.684 L 117.855 26.316 C 117.807 23.556 118.371 21.144 119.547 19.08 C 120.747 16.992 122.379 15.372 124.443 14.22 C 126.507 13.068 128.835 12.492 131.427 12.492 C 135.483 12.492 138.675 13.728 141.003 16.2 C 143.331 18.648 144.495 21.948 144.495 26.1 L 144.459 52.38 L 138.051 52.38 Z M 91.539 52.38 L 91.539 13.5 L 97.263 13.5 L 97.263 23.904 L 97.983 23.904 L 97.983 52.38 L 91.539 52.38 Z M 114.831 52.38 L 114.867 27.756 C 114.867 24.78 114.099 22.452 112.563 20.772 C 111.027 19.068 108.987 18.216 106.443 18.216 C 103.923 18.216 101.883 19.08 100.323 20.808 C 98.763 22.536 97.983 24.828 97.983 27.684 L 94.599 25.668 C 94.599 23.148 95.199 20.892 96.399 18.9 C 97.599 16.908 99.231 15.348 101.295 14.22 C 103.359 13.068 105.699 12.492 108.315 12.492 C 110.931 12.492 113.211 13.044 115.155 14.148 C 117.099 15.252 118.599 16.836 119.655 18.9 C 120.711 20.94 121.239 23.376 121.239 26.208 L 121.203 52.38 L 114.831 52.38 Z" fill="currentColor" fill-rule="nonzero"/>
  <path d="M 158.192 6.624 L 158.192 0 L 164.6 0 L 164.6 6.624 L 158.192 6.624 Z M 158.192 52.38 L 158.192 13.5 L 164.6 13.5 L 164.6 52.38 L 158.192 52.38 Z" fill="currentColor" fill-rule="nonzero"/>
  <path d="M 206.686 52.38 L 206.686 32.904 C 206.686 31.056 206.518 29.28 206.182 27.576 C 205.87 25.872 205.306 24.348 204.49 23.004 C 203.698 21.636 202.618 20.556 201.25 19.764 C 199.906 18.972 198.202 18.576 196.138 18.576 C 194.53 18.576 193.066 18.852 191.746 19.404 C 190.45 19.932 189.334 20.748 188.398 21.852 C 187.462 22.956 186.73 24.348 186.202 26.028 C 185.698 27.684 185.446 29.64 185.446 31.896 L 181.234 30.6 C 181.234 26.832 181.906 23.604 183.25 20.916 C 184.618 18.204 186.526 16.128 188.974 14.688 C 191.446 13.224 194.35 12.492 197.686 12.492 C 200.206 12.492 202.354 12.888 204.13 13.68 C 205.906 14.472 207.382 15.528 208.558 16.848 C 209.734 18.144 210.658 19.608 211.33 21.24 C 212.002 22.848 212.47 24.492 212.734 26.172 C 213.022 27.828 213.166 29.4 213.166 30.888 L 213.166 52.38 L 206.686 52.38 Z M 178.966 52.38 L 178.966 13.5 L 184.726 13.5 L 184.726 23.904 L 185.446 23.904 L 185.446 52.38 L 178.966 52.38 Z" fill="currentColor" fill-rule="nonzero"/>
  <path d="M 227.277 52.38 L 227.277 45.324 L 234.333 45.324 L 234.333 52.38 L 227.277 52.38 Z" fill="currentColor" fill-rule="nonzero"/>
  <path d="M 249.851 6.624 L 249.851 0 L 256.259 0 L 256.259 6.624 L 249.851 6.624 Z M 249.851 52.38 L 249.851 13.5 L 256.259 13.5 L 256.259 52.38 L 249.851 52.38 Z" fill="currentColor" fill-rule="nonzero"/>
  <path d="M 287.221 53.46 C 283.357 53.46 280.021 52.584 277.213 50.832 C 274.429 49.08 272.281 46.656 270.769 43.56 C 269.257 40.464 268.501 36.912 268.501 32.904 C 268.501 28.824 269.269 25.248 270.805 22.176 C 272.341 19.104 274.513 16.716 277.321 15.012 C 280.129 13.284 283.429 12.42 287.221 12.42 C 291.109 12.42 294.457 13.296 297.265 15.048 C 300.073 16.776 302.221 19.188 303.709 22.284 C 305.221 25.356 305.977 28.896 305.977 32.904 C 305.977 36.96 305.221 40.536 303.709 43.632 C 302.197 46.704 300.037 49.116 297.229 50.868 C 294.421 52.596 291.085 53.46 287.221 53.46 Z M 287.221 47.376 C 291.253 47.376 294.253 46.032 296.221 43.344 C 298.189 40.656 299.173 37.176 299.173 32.904 C 299.173 28.512 298.177 25.02 296.185 22.428 C 294.193 19.812 291.205 18.504 287.221 18.504 C 284.509 18.504 282.277 19.116 280.525 20.34 C 278.773 21.564 277.465 23.256 276.601 25.416 C 275.737 27.576 275.305 30.072 275.305 32.904 C 275.305 37.272 276.313 40.776 278.329 43.416 C 280.345 46.056 283.309 47.376 287.221 47.376 Z" fill="currentColor" fill-rule="nonzero"/>
</svg>
